<svg width="240" height="240" viewBox="0 0 240 240" fill="none" xmlns="http://www.w3.org/2000/svg">
  <rect width="240" height="240" rx="48" fill="#13252D" fill-opacity="0.08"/>
  <path d="M120 44C132.565 68.9801 150.089 87.6225 174 100.5C159.782 101.88 149.239 106.503 141 114.5C156.521 121.755 166.054 132.255 171 146C155.742 141.502 142.408 142.169 130.5 148C136.954 160.086 139.454 173.253 138 187.5C129.74 175.314 120.073 167.647 109 164.5C97.9271 167.647 88.2599 175.314 80 187.5C78.5462 173.253 81.0462 160.086 87.5 148C75.5916 142.169 62.2583 141.502 47 146C51.9462 132.255 61.4787 121.755 77 114.5C68.7614 106.503 58.2187 101.88 44 100.5C67.9113 87.6225 85.4351 68.9801 98 44C99.9391 66.6227 103.606 84.1227 109 96.5C114.394 84.1227 118.061 66.6227 120 44Z" fill="#13252D"/>
</svg>
